<?xml version="1.0" standalone="no"?>
<!DOCTYPE svg PUBLIC "-//W3C//DTD SVG 20010904//EN"
 "http://www.w3.org/TR/2001/REC-SVG-20010904/DTD/svg10.dtd">
<svg version="1.0" xmlns="http://www.w3.org/2000/svg"
 width="700.000000pt" height="700.000000pt" viewBox="0 0 700.000000 700.000000"
 preserveAspectRatio="xMidYMid meet">
<metadata>
Created by potrace 1.14, written by Peter Selinger 2001-2017
</metadata>
<g transform="translate(0.000000,700.000000) scale(0.100000,-0.100000)"
fill="#000000" stroke="none">
<path d="M1684 6454 c-506 -85 -936 -461 -1092 -954 -65 -206 -62 -110 -62
-1989 0 -1436 2 -1721 15 -1801 42 -280 170 -540 368 -747 196 -204 422 -333
717 -406 85 -21 92 -21 1825 -24 1692 -3 1743 -3 1855 16 281 48 523 170 727
364 207 198 338 431 409 728 17 69 18 183 22 1819 3 1580 1 1754 -13 1845 -84
511 -452 941 -940 1099 -200 65 -43 60 -1985 62 -1460 2 -1779 0 -1846 -12z
m12 -1573 c31 -14 117 -102 350 -356 1274 -1392 1319 -1440 1364 -1462 54 -28
120 -29 175 -4 52 24 44 16 925 980 804 879 785 861 880 861 87 0 176 -66 200
-147 8 -27 10 -376 8 -1188 l-3 -1150 -32 -67 c-44 -94 -109 -160 -202 -206
l-75 -37 -1785 0 -1786 0 -67 32 c-94 44 -160 109 -206 202 l-37 75 -3 1150
c-2 813 0 1162 8 1189 34 115 175 178 286 128z"/>
</g>
</svg>
