<?xml version="1.0" encoding="utf-8"?>
<svg viewBox="134.89 72.775 20.662 23.882" xmlns="http://www.w3.org/2000/svg">
  <path fill-rule="evenodd" d="M 10.343 0.942 L 4 4.6 L 6.332 5.95 L 10.342 3.644 L 14.354 5.95 L 16.686 4.6 L 10.343 0.942 Z M 14.353 7.862 L 16.686 9.213 L 16.686 11.916 L 12.675 14.223 L 12.675 18.837 L 10.343 20.188 L 8.011 18.837 L 8.011 14.223 L 4 11.916 L 4 9.213 L 6.332 7.862 L 10.342 10.169 L 14.354 7.862 L 14.353 7.862 Z M 16.686 13.827 L 16.686 16.53 L 14.354 17.881 L 14.354 15.178 L 16.686 13.828 L 16.686 13.827 Z M 14.331 19.792 L 18.341 17.485 L 18.341 12.872 L 20.674 11.52 L 20.674 18.837 L 14.331 22.495 L 14.331 19.792 L 14.331 19.792 Z M 18.341 8.258 L 16.01 6.907 L 18.342 5.555 L 20.674 6.907 L 20.674 9.61 L 18.342 10.961 L 18.342 8.258 L 18.341 8.258 Z M 8.012 23.474 L 8.012 20.77 L 10.344 22.121 L 12.676 20.77 L 12.676 23.473 L 10.344 24.824 L 8.012 23.473 L 8.012 23.474 Z M 6.33 17.88 L 4 16.53 L 4 13.827 L 6.332 15.178 L 6.332 17.881 L 6.33 17.88 Z M 10.342 8.257 L 8.01 6.907 L 10.342 5.555 L 12.674 6.907 L 10.342 8.258 L 10.342 8.257 Z M 4.676 6.907 L 2.344 8.258 L 2.344 10.961 L 0.012 9.61 L 0.012 6.907 L 2.344 5.555 L 4.676 6.907 Z M 0.012 11.52 L 2.344 12.872 L 2.344 17.485 L 6.354 19.792 L 6.354 22.495 L 0.013 18.837 L 0.013 11.52 L 0.012 11.52 Z" clip-rule="evenodd" transform="matrix(1, 0, 0, 1, 134.878235, 71.832642)" style="fill: rgb(240, 185, 11);"/>
</svg>